# xmcd
#
# Track frame offsets:
#	150
#	12662
#	23550
#	35225
#	46350
#	58087
#	71087
#	88125
#	99550
#	114562
#	126125
#	136400
#	150275
#	161575
#	171237
#	181625
#	196637
#	211400
#	223337
#	239175
#
# Disc length: 3335 seconds
#
# Revision: 1
# Processed by: cddbd v1.4PL0 Copyright (c) Steve Scherf et al.
# Submitted via: audiograbber 1.80
#
DISCID=230d0514
DTITLE=George Jones - The Legendary George Jones - Disc 3
DYEAR=1900
DGENRE=
TTITLE0=White Lightnin'
TTITLE1=Tender Years
TTITLE2=The Window Up Above
TTITLE3=Tall Tall Trees
TTITLE4=She Thinks I Still Care
TTITLE5=Same Ole Me
TTITLE6=Bartender's Blues
TTITLE7=The One I Loved Back Then
TTITLE8=Somebody Wants Me Out Of The Way
TTITLE9=Someday My Day Will Come
TTITLE10=Why Baby Why
TTITLE11=A Good Year For The Roses
TTITLE12=I'll Share My World With You
TTITLE13=The Race Is On
TTITLE14=Walk Through This World With Me
TTITLE15=Wine Colored Roses
TTITLE16=The Right Left Hand
TTITLE17=I Turn To You
TTITLE18=I Don't Need Your Rockin' Chair
TTITLE19=High-tech Redneck
EXTD=
EXTT0=
EXTT1=
EXTT2=
EXTT3=
EXTT4=
EXTT5=
EXTT6=
EXTT7=
EXTT8=
EXTT9=
EXTT10=
EXTT11=
EXTT12=
EXTT13=
EXTT14=
EXTT15=
EXTT16=
EXTT17=
EXTT18=
EXTT19=
PLAYORDER=
